<?xml version="1.0" encoding="UTF-8"?>
<svg xmlns="http://www.w3.org/2000/svg" viewBox="0 0 403.98 497.32">
  <defs>
    <style>
      .cls-1 {
        fill: #FFFFFF;
      }

      .cls-2 {
        fill: #82a926;
      }

      .cls-3 {
        fill: #506612;
      }
    </style>
  </defs>
  <polygon class="cls-1" points="0 357.63 0 114.44 204.85 0 403.98 112.72 403.98 342.18 213.43 446.89 213.43 369.07 342.18 298.69 343.32 148.2 204.85 68.09 60.08 147.63 59.51 390.82 0 357.63"/>
  <polygon class="cls-2" points="129.46 457.36 129.46 327.76 201.99 368.96 201.99 495.56 129.46 457.36"/>
  <polygon class="cls-1" points="280.38 178.91 203.99 136.86 123.6 181.49 201.7 223.83 280.38 178.91"/>
  <polygon class="cls-3" points="201.99 311.66 123.6 267.89 123.6 181.49 201.7 223.83 201.99 311.66"/>
  <polygon class="cls-2" points="280.38 270.46 201.99 311.66 201.7 223.83 280.38 178.91 280.38 270.46"/>
</svg>
