<?xml version="1.0" encoding="UTF-8"?>
<svg xmlns="http://www.w3.org/2000/svg" viewBox="0 0 1489.17 497.32">
  <defs>
    <style>
      .cls-1 {
        fill: #FFFFFF;
      }

      .cls-2 {
        fill: #82a926;
      }

      .cls-3 {
        fill: #506612;
      }
    </style>
  </defs>
  <g id="Capa_1" data-name="Capa 1">
    <polygon class="cls-1" points="0 357.63 0 114.44 204.85 0 403.98 112.72 403.98 342.18 213.43 446.89 213.43 369.07 342.18 298.69 343.32 148.2 204.85 68.09 60.08 147.63 59.51 390.82 0 357.63"/>
    <polygon class="cls-2" points="129.46 457.36 129.46 327.76 201.99 368.96 201.99 495.56 129.46 457.36"/>
    <polygon class="cls-1" points="280.38 178.91 203.99 136.86 123.6 181.49 201.7 223.83 280.38 178.91"/>
    <polygon class="cls-3" points="201.99 311.66 123.6 267.89 123.6 181.49 201.7 223.83 201.99 311.66"/>
    <polygon class="cls-2" points="280.38 270.46 201.99 311.66 201.7 223.83 280.38 178.91 280.38 270.46"/>
    <g>
      <polygon class="cls-3" points="924.5 159.2 956.94 159.2 997.14 203 997.14 242.97 958.88 282.74 924.5 282.74 979.85 224.6 979.8 220.69 924.5 159.2"/>
      <polygon class="cls-3" points="1077.31 159.2 1044.87 159.2 1004.67 203 1004.67 242.97 1042.93 282.74 1077.31 282.74 1021.95 224.6 1021.97 220.73 1077.31 159.2"/>
    </g>
    <g>
      <path class="cls-1" d="M544.89,159.2c27,0,37.94,12.53,37.94,36.18v13.24c0,23.83-10.94,36.89-37.94,36.89h-73.06v33.36c0,2.65-1.24,3.88-3.88,3.88h-19.06c-2.65,0-3.88-1.24-3.88-3.88v-114.36c0-3.53,1.76-5.3,5.29-5.3h94.6ZM539.42,221.15c12,0,16.41-4.77,16.41-15.18v-6.71c0-10.59-4.41-15.35-16.41-15.35h-65.3c-1.59,0-2.29.71-2.29,2.12v35.12h67.59Z"/>
      <path class="cls-1" d="M700.38,159.2c26.3,0,37.94,11.83,37.94,36.18v10.24c0,20.47-8.12,32.47-25.59,36l29.47,36.53c1.41,1.76.53,4.59-2.29,4.59h-23.65c-2.82,0-3.71-.71-4.94-2.29l-28.06-35.82h-55.95v34.24c0,2.65-1.24,3.88-3.88,3.88h-19.06c-2.65,0-3.88-1.24-3.88-3.88v-114.36c0-3.53,1.76-5.3,5.29-5.3h94.6ZM694.91,221.32c12,0,16.41-4.24,16.41-14.83v-7.41c0-10.77-4.59-15.18-16.41-15.18h-65.3c-1.59,0-2.29.53-2.29,1.94v35.47h67.59Z"/>
      <path class="cls-1" d="M838.4,159.2c9.18,0,14.47,2.65,20.3,13.41l58.41,106.07c1.24,2.47.71,4.06-2.12,4.06h-22.41c-2.29,0-3.35-.53-4.06-2.12l-11.65-21.53h-84.54l-11.47,21.53c-.88,1.59-1.76,2.12-4.06,2.12h-23.12c-2.82,0-3.35-1.59-2.12-4.06l57.89-106.07c5.65-10.76,11.12-13.41,18.53-13.41h10.41ZM864.34,236.15l-27.36-50.65c-.53-.88-1.23-1.24-2.12-1.24h-1.06c-.88,0-1.41.35-1.94,1.24l-27.18,50.65h59.65Z"/>
    </g>
    <g>
      <path class="cls-1" d="M1113.75,159.2c2.65,0,3.88,1.24,3.88,3.88v115.77c0,2.65-1.24,3.88-3.88,3.88h-19.06c-2.65,0-3.88-1.24-3.88-3.88v-115.77c0-2.65,1.24-3.88,3.88-3.88h19.06Z"/>
      <path class="cls-1" d="M1243.65,159.2c35.83,0,49.42,12.71,49.42,46.59v30.35c0,33.89-13.59,46.59-49.42,46.59h-54.36c-35.83,0-49.42-12.88-49.42-46.59v-30.35c0-33.71,13.59-46.59,49.42-46.59h54.36ZM1166.7,234.21c0,18.53,5.12,23.65,23.47,23.65h52.42c18.35,0,23.47-5.12,23.47-23.65v-26.47c0-18.53-5.12-23.65-23.47-23.65h-52.42c-18.35,0-23.47,5.12-23.47,23.65v26.47Z"/>
      <path class="cls-1" d="M1346.89,159.2c12.71,0,14.82,2.65,20.47,10.41l64.95,86.12c.53.88,1.24,1.24,2.29,1.24h1.59c.88,0,1.41-.53,1.41-1.76v-92.12c0-2.65,1.24-3.88,3.88-3.88h18.88c2.65,0,3.88,1.24,3.88,3.88v101.3c0,13.94-4.77,18.35-15.88,18.35h-15.71c-12.71,0-14.82-2.65-20.3-10.41l-65.12-86.12c-.71-.88-1.24-1.24-2.29-1.24h-1.59c-1.06,0-1.41.53-1.41,1.76v92.12c0,2.65-1.41,3.88-3.88,3.88h-18.88c-2.65,0-3.88-1.24-3.88-3.88v-101.3c0-13.94,4.59-18.35,15.71-18.35h15.88Z"/>
    </g>
  </g>
  <g id="Capa_2" data-name="Capa 2">
    <g>
      <path class="cls-1" d="M625.18,399.37c-4.2,0-8.16-.71-11.9-2.14-3.74-1.42-6.63-3.27-8.67-5.53l1.86-3.07c1.94,1.99,4.58,3.67,7.95,5.04,3.36,1.37,6.92,2.06,10.69,2.06s6.84-.5,9.24-1.49c2.39-1,4.17-2.33,5.33-3.99,1.16-1.67,1.73-3.52,1.73-5.57,0-2.42-.65-4.36-1.94-5.81-1.29-1.45-2.99-2.61-5.08-3.47s-4.38-1.59-6.86-2.18c-2.47-.59-4.98-1.22-7.5-1.9-2.53-.67-4.84-1.54-6.94-2.62-2.1-1.08-3.78-2.54-5.04-4.4-1.26-1.86-1.9-4.26-1.9-7.22,0-2.69.7-5.16,2.1-7.42,1.4-2.26,3.58-4.09,6.54-5.49,2.96-1.4,6.75-2.1,11.38-2.1,3.12,0,6.2.46,9.24,1.37,3.04.92,5.63,2.15,7.79,3.71l-1.53,3.31c-2.37-1.61-4.91-2.81-7.62-3.59-2.72-.78-5.34-1.17-7.87-1.17-3.6,0-6.59.51-8.96,1.53-2.37,1.02-4.11,2.38-5.24,4.07-1.13,1.69-1.69,3.59-1.69,5.69,0,2.42.63,4.36,1.9,5.81,1.26,1.45,2.94,2.61,5.04,3.47,2.1.86,4.41,1.59,6.94,2.18,2.53.59,5.03,1.22,7.5,1.9,2.47.67,4.76,1.55,6.86,2.62,2.1,1.08,3.79,2.53,5.08,4.36,1.29,1.83,1.94,4.2,1.94,7.1,0,2.64-.73,5.1-2.18,7.38-1.45,2.29-3.67,4.12-6.66,5.49-2.99,1.37-6.82,2.06-11.5,2.06Z"/>
      <path class="cls-1" d="M719.98,398.97v-20.49l.97,2.66-23.72-38.65h4.52l21.54,35.1h-2.26l21.54-35.1h4.28l-23.72,38.65.97-2.66v20.49h-4.11Z"/>
      <path class="cls-1" d="M819.14,399.37c-4.2,0-8.16-.71-11.9-2.14-3.74-1.42-6.63-3.27-8.67-5.53l1.86-3.07c1.94,1.99,4.58,3.67,7.95,5.04,3.36,1.37,6.92,2.06,10.69,2.06s6.84-.5,9.24-1.49c2.39-1,4.17-2.33,5.33-3.99,1.16-1.67,1.73-3.52,1.73-5.57,0-2.42-.65-4.36-1.94-5.81s-2.99-2.61-5.08-3.47-4.38-1.59-6.86-2.18c-2.47-.59-4.98-1.22-7.5-1.9-2.53-.67-4.84-1.54-6.94-2.62-2.1-1.08-3.78-2.54-5.04-4.4-1.26-1.86-1.9-4.26-1.9-7.22,0-2.69.7-5.16,2.1-7.42,1.4-2.26,3.58-4.09,6.54-5.49s6.75-2.1,11.38-2.1c3.12,0,6.2.46,9.24,1.37,3.04.92,5.63,2.15,7.79,3.71l-1.53,3.31c-2.37-1.61-4.91-2.81-7.62-3.59-2.72-.78-5.34-1.17-7.87-1.17-3.6,0-6.59.51-8.96,1.53-2.37,1.02-4.12,2.38-5.24,4.07-1.13,1.69-1.69,3.59-1.69,5.69,0,2.42.63,4.36,1.9,5.81,1.26,1.45,2.95,2.61,5.04,3.47,2.1.86,4.41,1.59,6.94,2.18,2.53.59,5.03,1.22,7.5,1.9,2.47.67,4.76,1.55,6.86,2.62,2.1,1.08,3.79,2.53,5.08,4.36,1.29,1.83,1.94,4.2,1.94,7.1,0,2.64-.73,5.1-2.18,7.38-1.45,2.29-3.67,4.12-6.66,5.49-2.99,1.37-6.82,2.06-11.5,2.06Z"/>
      <path class="cls-1" d="M911.84,398.97v-52.77h-20.33v-3.71h44.78v3.71h-20.33v52.77h-4.12Z"/>
      <path class="cls-1" d="M994.86,398.97v-56.48h37.76v3.71h-33.64v49.05h34.85v3.71h-38.97ZM998.49,372.1v-3.63h30.58v3.63h-30.58Z"/>
      <path class="cls-1" d="M1097.24,398.97v-56.48h3.47l26.22,45.26h-1.86l26.14-45.26h3.39l.08,56.48h-4.03l-.08-50.26h1.13l-24.77,42.76h-2.02l-24.85-42.76h1.21v50.26h-4.03Z"/>
      <path class="cls-1" d="M1237.63,399.37c-4.2,0-8.16-.71-11.9-2.14-3.74-1.42-6.63-3.27-8.67-5.53l1.86-3.07c1.94,1.99,4.58,3.67,7.95,5.04,3.36,1.37,6.92,2.06,10.69,2.06s6.84-.5,9.24-1.49c2.39-1,4.17-2.33,5.33-3.99,1.16-1.67,1.73-3.52,1.73-5.57,0-2.42-.65-4.36-1.94-5.81s-2.99-2.61-5.08-3.47-4.38-1.59-6.86-2.18c-2.47-.59-4.98-1.22-7.5-1.9-2.53-.67-4.84-1.54-6.94-2.62-2.1-1.08-3.78-2.54-5.04-4.4-1.26-1.86-1.9-4.26-1.9-7.22,0-2.69.7-5.16,2.1-7.42,1.4-2.26,3.58-4.09,6.54-5.49s6.75-2.1,11.38-2.1c3.12,0,6.2.46,9.24,1.37,3.04.92,5.63,2.15,7.79,3.71l-1.53,3.31c-2.37-1.61-4.91-2.81-7.62-3.59-2.72-.78-5.34-1.17-7.87-1.17-3.6,0-6.59.51-8.96,1.53-2.37,1.02-4.12,2.38-5.24,4.07-1.13,1.69-1.69,3.59-1.69,5.69,0,2.42.63,4.36,1.9,5.81,1.26,1.45,2.95,2.61,5.04,3.47,2.1.86,4.41,1.59,6.94,2.18,2.53.59,5.03,1.22,7.5,1.9,2.47.67,4.76,1.55,6.86,2.62,2.1,1.08,3.79,2.53,5.08,4.36,1.29,1.83,1.94,4.2,1.94,7.1,0,2.64-.73,5.1-2.18,7.38-1.45,2.29-3.67,4.12-6.66,5.49-2.99,1.37-6.82,2.06-11.5,2.06Z"/>
    </g>
    <g>
      <path class="cls-1" d="M430.6,435.46v28.68h-3.8v-28.68h3.8Z"/>
      <path class="cls-1" d="M467.63,435.46v28.68h-3.82l-14.44-22.12v22.12h-3.8v-28.68h3.8l14.5,22.18v-22.18h3.76Z"/>
      <path class="cls-1" d="M501.66,435.46v3.11h-22.16v-3.11h22.16ZM492.44,435.46v28.68h-3.74v-28.68h3.74Z"/>
      <path class="cls-1" d="M517.78,435.46v28.68h-3.8v-28.68h3.8ZM532,435.46v3.11h-14.99v-3.11h14.99ZM530.19,447.79v3.09h-13.18v-3.09h13.18ZM532.2,461.04v3.09h-15.19v-3.09h15.19Z"/>
      <path class="cls-1" d="M548.78,435.46v28.68h-3.8v-28.68h3.8ZM562.37,461.04v3.09h-14.34v-3.09h14.34Z"/>
      <path class="cls-1" d="M578.85,435.46v28.68h-3.8v-28.68h3.8Z"/>
      <path class="cls-1" d="M615,449.85v10.5c-.35.53-.92,1.11-1.69,1.76-.77.65-1.84,1.21-3.2,1.69-1.36.48-3.11.72-5.25.72-1.75,0-3.35-.3-4.82-.92-1.46-.61-2.73-1.5-3.8-2.68-1.07-1.17-1.9-2.61-2.48-4.29-.58-1.69-.88-3.6-.88-5.74v-2.23c0-2.14.25-4.05.76-5.73.51-1.68,1.25-3.11,2.24-4.28.98-1.18,2.19-2.07,3.62-2.68,1.43-.61,3.07-.92,4.92-.92,2.19,0,4.03.38,5.51,1.13,1.48.76,2.63,1.8,3.47,3.12.83,1.33,1.37,2.84,1.61,4.53h-3.8c-.17-1.04-.51-1.98-1.01-2.84-.51-.85-1.22-1.54-2.16-2.06-.93-.52-2.13-.78-3.6-.78-1.33,0-2.48.24-3.45.73-.97.49-1.77,1.18-2.4,2.09s-1.1,2-1.41,3.29c-.31,1.29-.46,2.74-.46,4.35v2.27c0,1.65.19,3.13.58,4.43.39,1.3.94,2.41,1.66,3.32.72.91,1.59,1.6,2.59,2.08,1,.47,2.12.71,3.34.71,1.35,0,2.45-.12,3.29-.34s1.5-.51,1.97-.83c.47-.32.83-.63,1.08-.92v-6.42h-6.64v-3.07h10.42Z"/>
      <path class="cls-1" d="M633.16,435.46v28.68h-3.8v-28.68h3.8ZM647.38,435.46v3.11h-14.99v-3.11h14.99ZM645.57,447.79v3.09h-13.18v-3.09h13.18ZM647.58,461.04v3.09h-15.19v-3.09h15.19Z"/>
      <path class="cls-1" d="M682.41,435.46v28.68h-3.82l-14.44-22.12v22.12h-3.8v-28.68h3.8l14.5,22.18v-22.18h3.76Z"/>
      <path class="cls-1" d="M714.51,455.01h3.78c-.2,1.81-.72,3.43-1.56,4.87-.84,1.43-2.03,2.56-3.57,3.4-1.54.83-3.45,1.25-5.75,1.25-1.68,0-3.21-.31-4.58-.95-1.37-.63-2.55-1.53-3.54-2.69s-1.74-2.56-2.27-4.2c-.53-1.63-.8-3.46-.8-5.47v-2.86c0-2.01.27-3.83.8-5.47.53-1.63,1.3-3.04,2.3-4.21,1-1.17,2.22-2.07,3.63-2.7,1.42-.63,3.01-.95,4.79-.95,2.17,0,4,.41,5.5,1.22,1.5.81,2.66,1.94,3.5,3.38.83,1.44,1.35,3.1,1.55,4.99h-3.78c-.18-1.34-.53-2.49-1.02-3.46-.5-.97-1.21-1.71-2.13-2.24-.92-.52-2.12-.79-3.6-.79-1.27,0-2.39.24-3.36.73-.97.49-1.77,1.17-2.42,2.07-.65.89-1.14,1.96-1.47,3.21-.33,1.25-.49,2.63-.49,4.16v2.9c0,1.41.15,2.73.44,3.96s.75,2.32,1.35,3.25,1.37,1.66,2.3,2.2c.93.53,2.04.8,3.31.8,1.62,0,2.9-.26,3.86-.77s1.68-1.25,2.18-2.21c.49-.96.84-2.11,1.05-3.45Z"/>
      <path class="cls-1" d="M735.6,435.46v28.68h-3.8v-28.68h3.8Z"/>
      <path class="cls-1" d="M761.53,438l-9.5,26.14h-3.88l10.93-28.68h2.5l-.06,2.54ZM769,453.52v3.11h-16.11v-3.11h16.11ZM769.49,464.13l-9.51-26.14-.06-2.54h2.5l10.97,28.68h-3.9Z"/>
      <path class="cls-1" d="M813.99,438l-9.5,26.14h-3.88l10.93-28.68h2.5l-.06,2.54ZM821.46,453.52v3.11h-16.11v-3.11h16.11ZM821.95,464.13l-9.51-26.14-.06-2.54h2.5l10.97,28.68h-3.9Z"/>
      <path class="cls-1" d="M848.34,452.89h-7.66v-3.09h7.66c1.48,0,2.69-.24,3.6-.71s1.59-1.13,2.02-1.97.64-1.8.64-2.88c0-.99-.21-1.91-.64-2.78-.43-.87-1.1-1.57-2.02-2.1-.92-.53-2.12-.8-3.6-.8h-6.78v25.57h-3.8v-28.68h10.58c2.17,0,4,.37,5.5,1.12,1.5.75,2.63,1.78,3.41,3.1.78,1.32,1.16,2.83,1.16,4.52,0,1.84-.39,3.41-1.16,4.71-.77,1.3-1.91,2.29-3.41,2.96-1.5.68-3.33,1.01-5.5,1.01Z"/>
      <path class="cls-1" d="M875.08,435.46v28.68h-3.8v-28.68h3.8ZM888.67,461.04v3.09h-14.34v-3.09h14.34Z"/>
      <path class="cls-1" d="M905.15,435.46v28.68h-3.8v-28.68h3.8Z"/>
      <path class="cls-1" d="M937.43,455.01h3.78c-.2,1.81-.72,3.43-1.56,4.87-.84,1.43-2.03,2.56-3.57,3.4s-3.45,1.25-5.75,1.25c-1.68,0-3.21-.31-4.58-.95-1.37-.63-2.55-1.53-3.54-2.69s-1.74-2.56-2.28-4.2c-.53-1.63-.8-3.46-.8-5.47v-2.86c0-2.01.27-3.83.8-5.47.53-1.63,1.3-3.04,2.3-4.21,1-1.17,2.22-2.07,3.63-2.7,1.42-.63,3.01-.95,4.79-.95,2.17,0,4,.41,5.5,1.22,1.5.81,2.66,1.94,3.5,3.38.83,1.44,1.35,3.1,1.55,4.99h-3.78c-.18-1.34-.53-2.49-1.02-3.46-.5-.97-1.21-1.71-2.13-2.24-.92-.52-2.12-.79-3.6-.79-1.27,0-2.39.24-3.36.73-.96.49-1.77,1.17-2.42,2.07-.65.89-1.14,1.96-1.47,3.21-.33,1.25-.49,2.63-.49,4.16v2.9c0,1.41.15,2.73.44,3.96s.75,2.32,1.35,3.25c.6.93,1.37,1.66,2.3,2.2.93.53,2.04.8,3.31.8,1.62,0,2.9-.26,3.86-.77.96-.51,1.68-1.25,2.18-2.21.49-.96.84-2.11,1.05-3.45Z"/>
      <path class="cls-1" d="M965.05,438l-9.5,26.14h-3.88l10.93-28.68h2.5l-.06,2.54ZM972.52,453.52v3.11h-16.11v-3.11h16.11ZM973.01,464.13l-9.51-26.14-.06-2.54h2.5l10.97,28.68h-3.9Z"/>
      <path class="cls-1" d="M992.62,435.46v28.68h-3.8v-28.68h3.8ZM996.58,464.13h-5.99l.04-3.09h5.95c2.05,0,3.75-.43,5.12-1.29,1.37-.86,2.39-2.07,3.08-3.62.69-1.56,1.03-3.38,1.03-5.47v-1.75c0-1.64-.2-3.1-.59-4.38-.39-1.28-.97-2.36-1.73-3.25-.76-.89-1.69-1.56-2.79-2.02-1.1-.46-2.35-.69-3.77-.69h-6.46v-3.11h6.46c1.88,0,3.59.31,5.14.94,1.55.62,2.89,1.52,4.01,2.7,1.12,1.18,1.99,2.59,2.59,4.25.6,1.66.91,3.53.91,5.6v1.71c0,2.08-.3,3.94-.91,5.6-.6,1.66-1.47,3.08-2.61,4.25s-2.5,2.06-4.1,2.69c-1.59.62-3.39.94-5.39.94Z"/>
      <path class="cls-1" d="M1033.57,438l-9.5,26.14h-3.88l10.93-28.68h2.5l-.06,2.54ZM1041.03,453.52v3.11h-16.11v-3.11h16.11ZM1041.52,464.13l-9.51-26.14-.06-2.54h2.5l10.97,28.68h-3.9Z"/>
      <path class="cls-1" d="M1086.03,438l-9.5,26.14h-3.88l10.93-28.68h2.5l-.06,2.54ZM1093.49,453.52v3.11h-16.11v-3.11h16.11ZM1093.98,464.13l-9.51-26.14-.06-2.54h2.5l10.97,28.68h-3.9Z"/>
      <path class="cls-1" d="M1131.67,435.46v28.68h-3.8v-28.68h3.8ZM1145.26,461.04v3.09h-14.34v-3.09h14.34Z"/>
      <path class="cls-1" d="M1168.65,438l-9.5,26.14h-3.88l10.93-28.68h2.5l-.06,2.54ZM1176.12,453.52v3.11h-16.11v-3.11h16.11ZM1176.61,464.13l-9.51-26.14-.06-2.54h2.5l10.97,28.68h-3.9Z"/>
      <path class="cls-1" d="M1232.57,448.89v1.81c0,2.15-.27,4.08-.81,5.79-.54,1.71-1.31,3.16-2.32,4.35-1.01,1.19-2.22,2.11-3.63,2.74-1.41.63-2.99.95-4.74.95s-3.25-.31-4.66-.95c-1.41-.63-2.63-1.54-3.66-2.74-1.03-1.2-1.83-2.65-2.39-4.35-.57-1.71-.85-3.64-.85-5.79v-1.81c0-2.15.28-4.08.84-5.78.56-1.7,1.35-3.15,2.37-4.35,1.02-1.2,2.24-2.12,3.65-2.75,1.41-.63,2.96-.95,4.66-.95s3.33.31,4.74.95c1.41.63,2.63,1.55,3.64,2.75,1.02,1.2,1.8,2.65,2.34,4.35.54,1.7.82,3.63.82,5.78ZM1228.81,450.7v-1.85c0-1.71-.17-3.22-.52-4.53-.35-1.31-.86-2.42-1.53-3.31-.67-.89-1.49-1.57-2.45-2.03-.96-.46-2.06-.69-3.28-.69s-2.25.23-3.2.69c-.95.46-1.77,1.14-2.44,2.03-.68.89-1.2,2-1.57,3.31-.37,1.31-.55,2.82-.55,4.53v1.85c0,1.72.18,3.24.55,4.56.37,1.32.9,2.43,1.58,3.33s1.51,1.58,2.46,2.04c.95.46,2.02.69,3.2.69s2.33-.23,3.29-.69c.96-.46,1.77-1.14,2.43-2.04s1.17-2.01,1.51-3.33c.34-1.32.51-2.84.51-4.56Z"/>
      <path class="cls-1" d="M1256.89,452.89h-7.66v-3.09h7.66c1.48,0,2.69-.24,3.6-.71s1.59-1.13,2.02-1.97.64-1.8.64-2.88c0-.99-.21-1.91-.64-2.78-.43-.87-1.1-1.57-2.02-2.1-.92-.53-2.12-.8-3.6-.8h-6.78v25.57h-3.8v-28.68h10.58c2.17,0,4,.37,5.5,1.12,1.5.75,2.63,1.78,3.41,3.1.78,1.32,1.16,2.83,1.16,4.52,0,1.84-.39,3.41-1.16,4.71-.77,1.3-1.91,2.29-3.41,2.96-1.5.68-3.33,1.01-5.5,1.01Z"/>
      <path class="cls-1" d="M1283.63,435.46v28.68h-3.8v-28.68h3.8ZM1297.86,435.46v3.11h-14.99v-3.11h14.99ZM1296.04,447.79v3.09h-13.18v-3.09h13.18ZM1298.05,461.04v3.09h-15.19v-3.09h15.19Z"/>
      <path class="cls-1" d="M1310.83,435.46h9.49c2.15,0,3.98.33,5.47.99,1.49.66,2.63,1.62,3.41,2.91.78,1.28,1.17,2.85,1.17,4.72,0,1.31-.27,2.51-.8,3.6-.53,1.08-1.29,2-2.29,2.76-.99.76-2.18,1.32-3.56,1.68l-1.06.41h-8.92l-.04-3.09h6.74c1.37,0,2.5-.24,3.41-.72.91-.48,1.59-1.13,2.05-1.94s.69-1.71.69-2.7c0-1.1-.22-2.07-.65-2.9-.43-.83-1.11-1.47-2.04-1.92s-2.12-.68-3.58-.68h-5.69v25.57h-3.8v-28.68ZM1327.59,464.13l-6.97-13,3.96-.02,7.07,12.78v.24h-4.06Z"/>
      <path class="cls-1" d="M1354.37,438l-9.5,26.14h-3.88l10.93-28.68h2.5l-.06,2.54ZM1361.84,453.52v3.11h-16.11v-3.11h16.11ZM1362.33,464.13l-9.51-26.14-.06-2.54h2.5l10.97,28.68h-3.9Z"/>
      <path class="cls-1" d="M1395.24,455.01h3.78c-.2,1.81-.72,3.43-1.56,4.87-.84,1.43-2.03,2.56-3.57,3.4s-3.45,1.25-5.75,1.25c-1.68,0-3.21-.31-4.58-.95-1.37-.63-2.55-1.53-3.54-2.69s-1.74-2.56-2.28-4.2c-.53-1.63-.8-3.46-.8-5.47v-2.86c0-2.01.27-3.83.8-5.47.53-1.63,1.3-3.04,2.3-4.21,1-1.17,2.22-2.07,3.63-2.7,1.42-.63,3.01-.95,4.79-.95,2.17,0,4,.41,5.5,1.22,1.5.81,2.66,1.94,3.5,3.38.83,1.44,1.35,3.1,1.55,4.99h-3.78c-.18-1.34-.53-2.49-1.02-3.46-.5-.97-1.21-1.71-2.13-2.24-.92-.52-2.12-.79-3.6-.79-1.27,0-2.39.24-3.36.73-.96.49-1.77,1.17-2.42,2.07-.65.89-1.14,1.96-1.47,3.21-.33,1.25-.49,2.63-.49,4.16v2.9c0,1.41.15,2.73.44,3.96s.75,2.32,1.35,3.25c.6.93,1.37,1.66,2.3,2.2.93.53,2.04.8,3.31.8,1.62,0,2.9-.26,3.86-.77.96-.51,1.68-1.25,2.18-2.21.49-.96.84-2.11,1.05-3.45Z"/>
      <path class="cls-1" d="M1416.32,435.46v28.68h-3.8v-28.68h3.8Z"/>
      <path class="cls-1" d="M1453.37,448.89v1.81c0,2.15-.27,4.08-.81,5.79-.54,1.71-1.31,3.16-2.32,4.35-1.01,1.19-2.22,2.11-3.63,2.74-1.41.63-2.99.95-4.74.95s-3.25-.31-4.66-.95c-1.41-.63-2.63-1.54-3.66-2.74-1.03-1.2-1.83-2.65-2.39-4.35-.57-1.71-.85-3.64-.85-5.79v-1.81c0-2.15.28-4.08.84-5.78.56-1.7,1.35-3.15,2.37-4.35,1.02-1.2,2.24-2.12,3.65-2.75,1.41-.63,2.96-.95,4.66-.95s3.33.31,4.74.95c1.41.63,2.63,1.55,3.64,2.75,1.02,1.2,1.8,2.65,2.34,4.35.54,1.7.82,3.63.82,5.78ZM1449.61,450.7v-1.85c0-1.71-.17-3.22-.52-4.53-.35-1.31-.86-2.42-1.53-3.31-.67-.89-1.49-1.57-2.45-2.03-.96-.46-2.06-.69-3.28-.69s-2.25.23-3.2.69c-.95.46-1.77,1.14-2.44,2.03-.68.89-1.2,2-1.57,3.31-.37,1.31-.55,2.82-.55,4.53v1.85c0,1.72.18,3.24.55,4.56.37,1.32.9,2.43,1.58,3.33s1.51,1.58,2.46,2.04c.95.46,2.02.69,3.2.69s2.33-.23,3.29-.69c.96-.46,1.77-1.14,2.43-2.04s1.17-2.01,1.51-3.33c.34-1.32.51-2.84.51-4.56Z"/>
      <path class="cls-1" d="M1489.17,435.46v28.68h-3.82l-14.44-22.12v22.12h-3.8v-28.68h3.8l14.5,22.18v-22.18h3.76Z"/>
    </g>
  </g>
</svg>